<?xml version="1.0" encoding="UTF-8" standalone="no"?>
<svg
   xmlns:dc="http://purl.org/dc/elements/1.1/"
   xmlns:cc="http://creativecommons.org/ns#"
   xmlns:rdf="http://www.w3.org/1999/02/22-rdf-syntax-ns#"
   xmlns:svg="http://www.w3.org/2000/svg"
   xmlns="http://www.w3.org/2000/svg"
   viewBox="0 0 334.66666 326.66666"
   height="326.66666"
   width="334.66666"
   xml:space="preserve"
   id="svg2"
   version="1.1"><metadata
     id="metadata8"><rdf:RDF><cc:Work
         rdf:about=""><dc:format>image/svg+xml</dc:format><dc:type
           rdf:resource="http://purl.org/dc/dcmitype/StillImage" /></cc:Work></rdf:RDF></metadata><defs
     id="defs6" /><g
     transform="matrix(1.3333333,0,0,-1.3333333,0,326.66667)"
     id="g10"><g
       transform="scale(0.1)"
       id="g12"><path
         id="path14"
         style="fill:#5c6e7a;fill-opacity:1;fill-rule:evenodd;stroke:none"
         d="m 1098.95,1853.52 c 2.65,-2.35 2.65,-2.19 0,0.46 0,0 0,-0.15 0,-0.46" /><path
         id="path16"
         style="fill:#5c6e7a;fill-opacity:1;fill-rule:evenodd;stroke:none"
         d="m 1070.43,1793.98 c 0,0 0,-0.15 0,-0.46 2.66,-2.35 2.66,-2.19 0,0.46" /><path
         id="path18"
         style="fill:#5c6e7a;fill-opacity:1;fill-rule:evenodd;stroke:none"
         d="m 1331.95,1680.51 c -2.34,2.34 -2.18,2.15 0.47,-0.51 0,0 -0.15,0.16 -0.47,0.51" /><path
         id="path20"
         style="fill:#f04f33;fill-opacity:1;fill-rule:evenodd;stroke:none"
         d="m 1260.43,1166.48 c -3.32,-2.65 -6.64,-5.15 -10,-7.5 l 74.02,-73.98 28.99,28.98 -73.01,73.01 c -13.01,-13.01 -19.65,-19.84 -20,-20.51" /><path
         id="path22"
         style="fill:#f04f33;fill-opacity:1;fill-rule:evenodd;stroke:none"
         d="m 1113.44,1601.99 -15.51,16.02 28.52,28.47 -18.01,17.5 h 0.51 c 0.31,5 1.99,26.84 5,65.51 3,38.36 4.64,63.01 5,74.03 -1.33,21.64 -8.01,38.47 -20,50.46 l -4.03,3.52 -28.98,28.98 v 0.51 l -15.51,-15.51 c -3.98,-3.98 -14.84,-14.8 -32.5,-32.5 -9.65,9.34 -27.66,27.19 -53.981,53.52 -26.328,26.68 -49.34,50 -69.027,70 -13.32,13.32 -20.313,20.35 -20.973,21.02 -2.66,2.65 -5.508,5 -8.519,6.99 -24.34,13.98 -47.34,11.64 -68.981,-6.99 L 614.922,1801.99 c -18.633,-21.64 -20.973,-44.65 -6.992,-68.98 1.992,-3.01 4.34,-5.86 6.992,-8.52 0.668,-0.66 7.699,-7.65 21.019,-20.97 16.68,-16.37 36.829,-36.37 60.508,-60 23.981,-23.68 45.313,-44.69 63.981,-63.01 17.66,-17.66 26.992,-26.99 28.011,-28.01 l 1.008,-0.51 132,-63.47 71.992,-72.04 c 1.989,3.36 4.489,6.53 7.499,9.54 0.66,0.66 7.5,7.3 20.51,20 l -86.02,85.97 -35.508,15.51 c -16.332,8.01 -34.141,16.68 -53.473,26.02 -19.687,9.64 -30.508,14.8 -32.5,15.46 l -168.008,166.53 c -4.339,5 -4.339,10.15 0,15.51 l 21.481,20.97 72.5,-72.5 27.5,26.99 -72.973,73.01 28.992,29.03 73.008,-73.01 26.992,27.5 -72.5,72.5 28.981,29.49 73.008,-73.01 26.992,26.99 -72.973,73.01 20.473,20.51 c 5.348,4.34 10.508,4.34 15.508,0 2.34,-2.34 17.5,-17.5 45.511,-45.51 28.321,-28.32 56.481,-56.48 84.489,-84.49 28.01,-28.01 43.01,-43.16 45,-45.51 1.33,1.02 7.66,7.19 19.02,18.52 11.33,11.33 20.98,20.97 28.99,28.98 l 1.99,-1.99 c 0,0 0,0.16 0,0.51 2.66,-2.66 2.66,-2.85 0,-0.51 4.02,-4.34 6.33,-11.48 6.99,-21.48 -0.31,-9.69 -2.3,-35.51 -5.97,-77.5 -3.68,-42.04 -5.86,-65.86 -6.53,-71.53 l 83.01,-82.5 c 0,0 0.16,0.16 0.51,0.51 -18.01,17.66 -28.83,28.32 -32.5,31.99" /><path
         id="path24"
         style="fill:#f04f33;fill-opacity:1;fill-rule:evenodd;stroke:none"
         d="m 1431.95,1340.51 c -1.01,-1.02 -10.5,-10.67 -28.51,-29.03 l 73.98,-73.98 28.52,28.98 -73.99,74.03" /><path
         id="path26"
         style="fill:#f04f33;fill-opacity:1;fill-rule:evenodd;stroke:none"
         d="m 999.449,2193.52 c 0.981,0.97 10.471,10.66 28.481,28.98 l -75,75 -28.981,-28.98 75.5,-75" /><path
         id="path28"
         style="fill:#f04f33;fill-opacity:1;fill-rule:evenodd;stroke:none"
         d="m 1076.45,2421.02 74.49,-74.03 c 12.65,12.66 19.33,19.34 20,20 3.01,3.01 6.17,5.51 9.49,7.5 l -75,75.51 -28.98,-28.98" /><path
         id="path30"
         style="fill:#f04f33;fill-opacity:1;fill-rule:evenodd;stroke:none"
         d="m 1823.44,1800.51 c -1.99,3.32 -4.34,6.33 -6.99,8.98 -0.67,0.67 -7.66,7.5 -21.02,20.51 -16.64,16.68 -36.99,36.84 -60.98,60.51 -23.67,23.67 -44.84,44.49 -63.51,62.5 -17.66,17.65 -26.99,26.99 -28.01,28.01 l -0.98,0.46 -132.03,64.03 -71.99,71.99 c -2.34,-3.32 -4.84,-6.48 -7.5,-9.49 -0.66,-0.67 -7.5,-7.5 -20.51,-20.51 l 85.51,-85.51 36.02,-15.97 c 16.32,-7.7 34.14,-16.37 53.47,-26.02 19.69,-9.34 30.35,-14.49 32.03,-15.51 l 168.48,-165.97 c 4.02,-5.36 4.02,-10.51 0,-15.51 l -21.48,-21.53 -73.01,73.01 -26.99,-26.99 73,-73.01 -29.53,-28.98 -72.5,72.5 -27.5,-26.99 73.01,-73.01 -28.98,-29.03 -73.01,73.01 -26.99,-27.5 72.5,-72.5 -20,-20.51 c -5.36,-4.33 -10.51,-4.33 -15.51,0 -2.35,2.35 -17.5,17.5 -45.51,45.51 -28.32,28.01 -56.48,56.17 -84.49,84.49 -28.01,28.01 -43.17,43.17 -45.51,45.51 -0.98,-1.33 -7.15,-7.65 -18.48,-18.98 -11.36,-11.33 -21.01,-21.02 -29.02,-29.03 -0.98,1.02 -1.64,1.84 -1.99,2.5 0,-0.31 0,-0.46 0,-0.46 -2.66,2.65 -2.66,2.81 0,0.46 -4.34,4.03 -6.68,11.02 -6.99,21.02 0.31,10 2.34,35.82 5.97,77.5 3.67,41.99 5.67,65.82 6.02,71.48 l -82.5,83.01 c -0.35,-0.31 -0.51,-0.51 -0.51,-0.51 17.66,-17.65 28.52,-28.47 32.5,-32.5 l 15.51,-15.46 -28.52,-28.52 18.01,-17.5 -0.51,-0.51 c -0.31,-5 -1.99,-26.64 -5,-65 -3.32,-38.67 -5,-63.47 -5,-74.49 1.37,-21.33 8.01,-38.01 20,-50 l 4.03,-3.98 28.98,-28.52 v -0.51 l 15.51,15.51 c 3.98,3.98 14.84,14.84 32.5,32.5 9.65,-9.34 27.65,-27.34 53.98,-53.98 26.02,-26.37 49.03,-49.54 69.03,-69.54 13.32,-13.63 20.31,-20.82 20.97,-21.48 2.7,-2.66 5.51,-5 8.52,-6.99 24.33,-13.67 47.34,-11.17 68.98,7.5 l 181.53,181.48 c 18.67,21.68 20.97,44.49 6.99,68.52" /><path
         id="path32"
         style="fill:#0078ae;fill-opacity:1;fill-rule:evenodd;stroke:none"
         d="m 760.43,1580.51 -74.489,-74.49 28.981,-29.03 75,75 -1.481,0.51 c -0.671,1.02 -10,10.35 -28.011,28.01" /><path
         id="path34"
         style="fill:#0078ae;fill-opacity:1;fill-rule:evenodd;stroke:none"
         d="m 607.93,1733.01 -74.489,-74.49 28.981,-29.03 73.519,74.03 c -13.32,12.96 -20.351,19.8 -21.019,20.46 -2.652,3.01 -5,6.02 -6.992,9.03" /><path
         id="path36"
         style="fill:#0078ae;fill-opacity:1;fill-rule:evenodd;stroke:none"
         d="m 1536.95,1571.02 -84.02,-83.52 -15.51,-36.02 c -7.97,-16.32 -16.64,-34.14 -25.97,-53.47 -9.69,-19.69 -14.85,-30.35 -15.51,-31.99 L 1229.45,1197.5 c -5,-3.98 -10.19,-3.98 -15.5,0 l -21.02,21.48 72.5,73.01 -26.99,26.99 -73.01,-72.96 -28.98,29.49 73,72.5 -27.5,27.5 -72.5,-73.01 -29.53,28.98 73.01,73.01 -26.99,26.99 -73.01,-72.5 -20.51,20 c -4.33,5.36 -4.33,10.51 0,15.51 2.35,2.35 17.5,17.5 45.51,45.51 28.36,28.32 56.52,56.48 84.49,84.49 28.01,28.01 43.17,43.17 45.51,45.51 -0.98,1.02 -7.15,7.15 -18.48,18.52 -11.36,11.32 -21.01,20.97 -29.02,28.98 l 1.99,1.99 c 0,0 -0.15,0 -0.47,0 2.66,2.66 2.82,2.66 0.47,0 4.34,4.34 11.53,6.68 21.53,6.99 9.64,-0.31 35.5,-2.3 77.5,-5.97 41.99,-3.67 65.82,-5.67 71.48,-6.02 l 32.5,32.5 -28.98,29.03 -15.51,-16.02 v 0.51 c -5.35,0.31 -27.15,1.99 -65.51,5 -38.32,3.32 -63.16,5 -74.49,5 -21.02,-1.33 -37.66,-8.01 -50,-20 l -33.01,-33.01 15.51,-15.51 c 3.98,-3.98 14.84,-14.84 32.5,-32.5 0,0 0,-0.15 0,-0.51 -10,-10 -28.17,-28.16 -54.49,-54.49 -26.68,-25.97 -49.85,-48.83 -69.5,-68.47 -13,-13.01 -19.84,-19.85 -20.5,-20.51 -3.009,-3.01 -5.509,-6.17 -7.501,-9.49 -13.359,-24.03 -10.859,-46.68 7.501,-68.01 l 181.48,-181.53 c 21.33,-18.32 44.02,-20.82 68.01,-7.5 3.32,2.04 6.48,4.54 9.49,7.5 0.66,0.67 7.34,7.5 20,20.51 16.33,16.33 36.33,36.53 60,60.51 23.67,23.67 44.69,44.84 63.01,63.52 18.32,18.32 28.01,27.96 28.98,28.98 v 0.51 l 64.03,132.5 70,70 c -3.01,1.99 -6.02,4.33 -9.03,6.99 -0.31,0.66 -7.15,7.66 -20.47,21.02" /><path
         id="path38"
         style="fill:#0078ae;fill-opacity:1;fill-rule:evenodd;stroke:none"
         d="m 1870.94,1906.02 -75.51,-75.51 c 13.36,-13.36 20.35,-20.35 21.02,-21.02 2.65,-2.65 5,-5.66 6.99,-8.98 l 76.48,76.48 -28.98,29.03" /><path
         id="path40"
         style="fill:#0078ae;fill-opacity:1;fill-rule:evenodd;stroke:none"
         d="m 1641.95,1981.48 0.98,-0.46 c 1.02,-0.67 10.51,-10 28.52,-28.01 l 75.97,76.48 -28.47,29.03 -77,-77.04" /><path
         id="path42"
         style="fill:#0078ae;fill-opacity:1;fill-rule:evenodd;stroke:none"
         d="m 1035.94,2168.01 166.48,168.01 c 5,4.33 10.2,4.33 15.51,0 l 21.02,-21.53 -72.5,-72.5 26.99,-27.5 73.01,73.01 28.98,-28.98 -73.01,-73.01 27.5,-26.99 72.5,72.5 29.53,-29.03 -73,-73.01 26.99,-26.99 73.01,73.01 20.5,-20.51 c 4.34,-5.31 4.34,-10.51 0,-15.51 -2.34,-2.3 -17.5,-17.5 -45.5,-45.46 -28.36,-28.01 -56.53,-56.18 -84.5,-84.54 -28,-27.96 -43.16,-42.96 -45.5,-45 0.97,-1.32 7.14,-7.65 18.47,-18.98 11.37,-11.33 21.02,-21.02 29.03,-28.98 -0.67,-0.67 -1.33,-1.37 -2,-2.04 0,0 0.16,0 0.47,0 -2.65,-2.3 -2.81,-2.3 -0.47,0 -4.33,-3.98 -11.52,-6.32 -21.52,-6.99 -9.65,0.35 -35.51,2.35 -77.5,6.02 -41.99,3.67 -65.82,5.82 -71.48,6.48 l -23.01,-23.01 -9.49,-10 28.98,-28.98 14.49,15 1.02,1.02 c 5.35,-0.67 27.15,-2.5 65.51,-5.51 38.32,-3.01 63,-4.69 73.98,-5 21.68,1.33 38.52,8.01 50.51,20 l 33.01,33.01 -15.51,15.46 c -3.99,4.03 -14.85,14.85 -32.5,32.5 0,0.36 0,0.51 0,0.51 10,10 28.16,28.17 54.49,54.49 26.68,26.37 49.84,49.34 69.49,69.03 13.36,12.65 20.2,19.33 20.51,20 3.01,3.01 5.51,6.17 7.5,9.49 13.36,23.98 10.86,46.68 -7.5,68.01 l -181.48,181.48 c -21.33,18.36 -44.03,20.86 -68.01,7.5 -3.32,-1.99 -6.49,-4.49 -9.49,-7.5 -0.67,-0.66 -7.35,-7.5 -20,-20.51 -16.33,-16.32 -36.33,-36.48 -60,-60.46 -23.68,-23.68 -44.69,-44.85 -63.01,-63.52 -18.32,-18.32 -28.01,-28.01 -28.991,-28.98 l -64.019,-133.01 -20.981,-21.02 -49.019,-48.98 c 3.011,-1.99 6.019,-4.34 9.019,-6.99 0.321,-0.67 7.153,-7.7 20.473,-21.02 l 68.519,68.52 15.508,15.46 15.5,35.51 c 7.971,16.33 16.641,34.34 25.981,54.03 9.69,19.33 14.84,30 15.51,31.99" /><path
         id="path44"
         style="fill:#0078ae;fill-opacity:1;fill-rule:nonzero;stroke:none"
         d="m 0.0390625,575.512 v 20.937 H 6.44922 c 5.62108,0 10.92968,0.391 15.92968,1.25 5,0.821 9.3008,2.5 12.9727,5 3.75,2.5 6.6367,6.09 8.75,10.781 2.1875,4.758 3.2773,11.09 3.2773,18.899 v 243.133 c 0,7.808 -1.0898,14.058 -3.2773,18.75 -2.1133,4.758 -5,8.437 -8.75,10.937 -3.6719,2.5 -7.9727,4.141 -12.9727,5 -5,0.821 -10.3086,1.25 -15.92968,1.25 H 0.0390625 v 20.93 H 145.512 v -20.93 h -6.563 c -5.551,0 -10.859,-0.429 -15.937,-1.25 -5,-0.859 -9.34,-2.5 -12.973,-5 -3.668,-2.5 -6.641,-6.179 -8.91,-10.937 -2.1798,-4.692 -3.2774,-10.942 -3.2774,-18.75 V 632.379 c 0,-7.809 1.0976,-14.141 3.2774,-18.899 2.269,-4.691 5.242,-8.281 8.91,-10.781 3.633,-2.5 7.973,-4.179 12.973,-5 5.078,-0.859 10.386,-1.25 15.937,-1.25 h 6.563 V 575.512 Z M 444.059,710.039 c 0,-24.059 -2.258,-44.918 -6.719,-62.5 -4.488,-17.617 -11.051,-32.148 -19.68,-43.59 -8.558,-11.371 -19.18,-19.769 -31.879,-25.16 -12.73,-5.391 -27.301,-8.129 -43.75,-8.129 -9.609,0 -18.281,1.059 -26.09,3.129 -7.82,2.07 -14.921,5.039 -21.25,8.91 -6.25,3.942 -11.8,8.629 -16.57,14.063 -4.801,5.386 -8.98,11.328 -12.5,17.808 H 262.5 l -8.91,-39.058 h -80 v 20.937 h 3.91 c 5.699,0 11.02,0.391 15.941,1.25 5,0.821 9.289,2.5 12.969,5 3.629,2.5 6.559,6.09 8.75,10.781 2.18,4.758 3.281,11.09 3.281,18.899 v 268.133 c 0,7.258 -1.101,13.16 -3.281,17.648 -2.191,4.461 -5.16,7.891 -8.91,10.32 -3.75,2.5 -8.129,4.098 -13.129,4.84 -4.922,0.7 -10.109,1.09 -15.621,1.09 h -3.91 v 20.942 h 92.031 v -91.723 c 0,-5.738 -0.109,-12.301 -0.312,-19.68 -0.11,-7.429 -0.309,-14.539 -0.618,-21.41 -0.312,-7.809 -0.711,-15.859 -1.101,-24.059 h 2.031 c 3.758,7.571 7.969,14.45 12.66,20.622 4.688,6.25 10.078,11.488 16.25,15.777 6.25,4.383 13.278,7.699 21.09,10 7.82,2.391 16.609,3.601 26.41,3.601 16.449,0 31.02,-2.781 43.75,-8.281 12.699,-5.429 23.321,-13.828 31.879,-25.16 8.629,-11.25 15.192,-25.59 19.68,-42.969 4.461,-17.422 6.719,-38.09 6.719,-62.031 z m -110.618,106.41 c -13.05,0 -23.91,-2.187 -32.66,-6.57 -8.672,-4.289 -15.582,-10.777 -20.781,-19.527 -5.23,-8.75 -8.91,-19.84 -11.09,-33.282 -2.191,-13.359 -3.289,-29.019 -3.289,-47.031 0,-17.418 1.098,-32.769 3.289,-46.09 2.18,-13.359 5.93,-24.609 11.25,-33.75 5.309,-9.07 12.262,-15.937 20.93,-20.629 8.75,-4.691 19.691,-7.031 32.82,-7.031 11.129,0 20.539,2.34 28.281,7.031 7.688,4.692 13.981,11.559 18.899,20.629 5,9.141 8.64,20.391 10.941,33.75 2.27,13.43 3.438,28.942 3.438,46.563 0,17.687 -1.168,33.16 -3.438,46.398 -2.301,13.32 -5.941,24.379 -10.941,33.129 -4.918,8.832 -11.32,15.473 -19.211,19.84 -7.82,4.383 -17.309,6.57 -28.438,6.57 z" /><path
         id="path46"
         style="fill:#0078ae;fill-opacity:1;fill-rule:nonzero;stroke:none"
         d="m 489.301,596.449 c 5.5,0 10.699,0.352 15.621,1.09 5,0.699 9.379,2.231 13.129,4.531 3.75,2.27 6.719,5.66 8.898,10.16 2.192,4.45 3.281,10.348 3.281,17.649 V 788.48 c 0,7.258 -1.089,13.161 -3.281,17.649 -2.179,4.461 -5.148,7.891 -8.898,10.32 -3.75,2.5 -8.129,4.102 -13.129,4.84 -4.922,0.82 -10.121,1.25 -15.621,1.25 h -1.571 v 21.09 h 89.379 v -211.25 c 0,-7.809 1.09,-14.141 3.282,-18.899 2.187,-4.691 5.078,-8.281 8.75,-10.781 3.75,-2.5 8.129,-4.179 13.129,-5 5.07,-0.859 10.39,-1.25 15.929,-1.25 h 6.571 V 575.512 H 482.578 v 20.937 z m 33.898,328.121 c 0,5.942 0.711,10.821 2.192,14.692 1.449,3.937 3.48,7.109 6.089,9.527 2.579,2.5 5.629,4.223 9.071,5.16 3.429,0.93 7.179,1.403 11.25,1.403 3.82,0 7.5,-0.473 10.929,-1.403 3.442,-0.937 6.411,-2.66 8.911,-5.16 2.5,-2.418 4.531,-5.59 6.089,-9.527 1.571,-3.871 2.348,-8.75 2.348,-14.692 0,-5.859 -0.777,-10.742 -2.348,-14.691 -1.558,-3.859 -3.589,-7.027 -6.089,-9.527 -2.5,-2.422 -5.469,-4.141 -8.911,-5.153 -3.429,-1.058 -7.109,-1.57 -10.929,-1.57 -4.071,0 -7.821,0.512 -11.25,1.57 -3.442,1.012 -6.492,2.731 -9.071,5.153 -2.609,2.5 -4.64,5.668 -6.089,9.527 -1.481,3.949 -2.192,8.832 -2.192,14.691 z" /><path
         id="path48"
         style="fill:#0078ae;fill-opacity:1;fill-rule:nonzero;stroke:none"
         d="m 801.328,604.102 c 5.82,0 10.621,1.128 14.371,3.437 3.832,2.262 7.031,5.231 9.531,8.91 2.579,3.75 4.61,8.121 6.098,13.121 1.563,5 2.891,10.16 4.063,15.469 l 2.5,11.563 h 20.937 l -2.348,-81.09 H 652.27 v 20 l 145.152,219.527 h -78.121 c -6.571,0 -12,-0.898 -16.25,-2.66 -4.18,-1.68 -7.621,-4.219 -10.321,-7.649 -2.73,-3.441 -4.96,-7.66 -6.71,-12.66 -1.68,-5 -3.399,-10.898 -5.161,-17.66 l -0.468,-1.871 h -20.942 l 4.852,71.09 H 856.02 V 823.012 L 710.391,604.102 Z" /><path
         id="path50"
         style="fill:#0078ae;fill-opacity:1;fill-rule:nonzero;stroke:none"
         d="m 927.191,605.98 c 0,6.559 0.821,11.95 2.5,16.25 1.637,4.372 3.899,7.848 6.719,10.469 2.809,2.571 6.129,4.449 10,5.621 3.82,1.129 7.969,1.719 12.34,1.719 4.141,0 8.16,-0.59 12.031,-1.719 3.828,-1.172 7.188,-3.05 10,-5.621 2.891,-2.621 5.199,-6.097 6.879,-10.469 1.641,-4.3 2.5,-9.691 2.5,-16.25 0,-6.371 -0.859,-11.718 -2.5,-16.101 -1.68,-4.367 -3.988,-7.891 -6.879,-10.469 -2.812,-2.609 -6.172,-4.449 -10,-5.621 -3.871,-1.129 -7.89,-1.719 -12.031,-1.719 -4.371,0 -8.52,0.59 -12.34,1.719 -3.871,1.172 -7.191,3.012 -10,5.621 -2.82,2.578 -5.082,6.102 -6.719,10.469 -1.679,4.383 -2.5,9.73 -2.5,16.101 z" /><path
         id="path52"
         style="fill:#0078ae;fill-opacity:1;fill-rule:nonzero;stroke:none"
         d="m 1318.87,929.102 62.5,-216.563 c 4.68,-16.68 8.83,-32.617 12.5,-47.809 3.63,-15.242 6.6,-28.601 8.9,-40.16 2.5,12.071 5.32,24.731 8.44,37.969 3.2,13.199 7.07,27.891 11.56,44.063 l 44.07,154.378 c 0.39,1.872 0.93,3.981 1.56,6.399 0.7,2.5 1.29,4.922 1.72,7.351 0.5,2.5 0.97,4.758 1.4,6.872 0.39,2.187 0.63,3.988 0.63,5.468 0,8.629 -2.77,14.84 -8.28,18.59 -5.43,3.828 -13.67,5.789 -24.69,5.789 h -11.41 v 20.93 h 122.03 v -20.93 h -9.53 c -4.92,0 -9.18,-0.551 -12.81,-1.57 -3.67,-0.93 -6.95,-2.809 -9.84,-5.617 -2.93,-2.742 -5.63,-6.641 -8.13,-11.723 -2.42,-5 -4.84,-11.641 -7.34,-19.84 l -84.38,-297.187 h -45 l -81.56,280 -76.41,-280 h -46.09 l -91.56,309.527 c -1.68,5.191 -3.56,9.531 -5.63,12.973 -1.99,3.437 -4.37,6.09 -7.18,7.968 -2.74,1.95 -5.94,3.36 -9.69,4.219 -3.75,0.821 -8.09,1.25 -12.97,1.25 h -6.56 v 20.93 h 137.65 v -20.93 h -11.4 c -10.12,0 -17.66,-1.961 -22.66,-5.789 -4.92,-3.75 -7.34,-9.801 -7.34,-18.121 0,-2.809 0.35,-5.699 1.09,-8.59 0.82,-2.929 1.76,-6.25 2.81,-10 l 45.94,-159.847 c 4.14,-15.231 8.13,-30.122 11.88,-44.692 3.75,-14.488 7.03,-27.769 9.84,-39.84 2.38,13.008 5.23,27.192 8.59,42.5 3.32,15.391 7.19,31.168 11.57,47.34 l 59.68,214.692 z" /><path
         id="path54"
         style="fill:#0078ae;fill-opacity:1;fill-rule:nonzero;stroke:none"
         d="m 1784.84,710.039 c 0,-47.109 -9.96,-82.109 -29.84,-105 -19.92,-22.93 -49.06,-34.379 -87.5,-34.379 -18.12,0 -34.38,2.82 -48.75,8.442 -14.3,5.699 -26.41,14.378 -36.41,25.937 -10,11.563 -17.65,26.09 -22.96,43.59 -5.24,17.5 -7.82,37.973 -7.82,61.41 0,46.641 9.85,81.41 29.53,104.223 19.77,22.808 49.07,34.218 87.82,34.218 18.12,0 34.29,-2.82 48.59,-8.441 14.38,-5.629 26.56,-14.18 36.56,-25.629 10,-11.48 17.58,-25.89 22.82,-43.281 5.31,-17.301 7.96,-37.649 7.96,-61.09 z m -185,0 c 0,-18.559 1.18,-34.918 3.6,-49.059 2.5,-14.179 6.44,-26.058 11.87,-35.628 5.51,-9.493 12.58,-16.68 21.25,-21.563 8.75,-4.918 19.38,-7.34 31.88,-7.34 12.5,0 23.04,2.422 31.72,7.34 8.63,4.883 15.62,12.07 20.93,21.563 5.39,9.57 9.26,21.449 11.57,35.628 2.38,14.141 3.59,30.5 3.59,49.059 0,18.512 -1.21,34.762 -3.59,48.75 -2.43,14.063 -6.33,25.781 -11.72,35.16 -5.43,9.371 -12.5,16.403 -21.25,21.09 -8.67,4.691 -19.22,7.031 -31.72,7.031 -12.5,0 -23.09,-2.34 -31.72,-7.031 -8.67,-4.687 -15.7,-11.719 -21.09,-21.09 -5.32,-9.379 -9.22,-21.097 -11.72,-35.16 -2.42,-13.988 -3.6,-30.238 -3.6,-48.75 z" /><path
         id="path56"
         style="fill:#0078ae;fill-opacity:1;fill-rule:nonzero;stroke:none"
         d="m 1973.91,575.512 h -144.38 v 20.937 h 1.56 c 5.63,0 10.94,0.391 15.94,1.25 5,0.821 9.3,2.5 12.97,5 3.63,2.5 6.56,6.09 8.75,10.781 2.19,4.758 3.28,11.09 3.28,18.899 V 788.48 c 0,7.258 -1.09,13.161 -3.28,17.649 -2.19,4.461 -5.16,7.891 -8.91,10.32 -3.75,2.5 -8.12,4.102 -13.12,4.84 -4.92,0.82 -10.12,1.25 -15.63,1.25 h -1.56 v 21.09 h 76.88 l 9.53,-49.68 h 2.5 c 3.2,7.5 6.56,14.531 10,21.09 3.44,6.641 7.58,12.422 12.5,17.34 5,5 11.13,8.91 18.44,11.723 7.38,2.886 16.6,4.378 27.65,4.378 18.2,0 31.76,-3.21 40.63,-9.531 8.82,-6.371 13.28,-15.32 13.28,-26.879 0,-5.23 -0.86,-10 -2.5,-14.371 -1.68,-4.379 -4.38,-8.211 -8.13,-11.41 -3.75,-3.129 -8.59,-5.59 -14.53,-7.34 -5.86,-1.679 -12.97,-2.5 -21.4,-2.5 0,13.821 -2,23.781 -5.94,29.84 -3.87,6.133 -10.71,9.223 -20.47,9.223 -6.17,0 -11.68,-1.801 -16.56,-5.313 -4.93,-3.437 -9.18,-8.09 -12.82,-13.91 -3.67,-5.738 -6.79,-12.34 -9.37,-19.84 -2.5,-7.5 -4.53,-15.238 -6.1,-23.129 -1.48,-7.808 -2.57,-15.621 -3.28,-23.441 -0.62,-7.809 -0.93,-14.918 -0.93,-21.25 v -78.75 c 0,-7.301 1.09,-13.199 3.28,-17.649 2.19,-4.5 5.15,-7.89 8.9,-10.16 3.75,-2.3 8.13,-3.832 13.13,-4.531 5,-0.738 10.23,-1.09 15.78,-1.09 h 13.91 z" /><path
         id="path58"
         style="fill:#0078ae;fill-opacity:1;fill-rule:nonzero;stroke:none"
         d="m 2061.29,596.449 c 5.7,0 11.01,0.391 15.94,1.25 5,0.821 9.29,2.5 12.97,5 3.63,2.5 6.56,6.09 8.75,10.781 2.18,4.758 3.28,11.09 3.28,18.899 v 268.133 c 0,7.258 -1.1,13.16 -3.28,17.648 -2.19,4.461 -5.16,7.891 -8.91,10.32 -3.75,2.5 -8.13,4.098 -13.13,4.84 -4.92,0.7 -10.11,1.09 -15.62,1.09 h -6.41 v 20.942 h 94.53 V 632.379 c 0,-7.809 1.02,-14.141 3.13,-18.899 2.19,-4.691 5.08,-8.281 8.75,-10.781 3.75,-2.5 8.12,-4.179 13.12,-5 5,-0.859 10.32,-1.25 15.94,-1.25 h 6.41 v -20.937 h -141.88 v 20.937 z" /><path
         id="path60"
         style="fill:#0078ae;fill-opacity:1;fill-rule:nonzero;stroke:none"
         d="m 2456.56,630.512 c 0,-7.422 1.1,-13.364 3.28,-17.813 2.19,-4.5 5.16,-7.969 8.91,-10.469 3.75,-2.429 8.05,-3.992 12.97,-4.691 5,-0.738 10.23,-1.09 15.78,-1.09 h 4.22 v -20.937 h -84.69 l -5.47,45 h -1.87 c -3.75,-7.742 -8.05,-14.653 -12.81,-20.782 -4.81,-6.058 -10.32,-11.25 -16.57,-15.628 -6.17,-4.301 -13.12,-7.582 -20.93,-9.84 -7.82,-2.383 -16.65,-3.602 -26.41,-3.602 -16.49,0 -31.06,2.738 -43.75,8.129 -12.62,5.391 -23.24,13.789 -31.88,25.16 -8.67,11.321 -15.15,25.699 -19.53,43.121 -4.37,17.379 -6.56,38.051 -6.56,62.032 0,24.058 2.19,44.847 6.56,62.347 4.38,17.571 10.86,32.071 19.53,43.43 8.64,11.449 19.26,19.891 31.88,25.32 12.69,5.5 27.26,8.281 43.75,8.281 9.57,0 18.28,-1.101 26.09,-3.281 7.82,-2.109 14.85,-5.121 21.1,-9.07 6.32,-3.859 11.91,-8.508 16.72,-13.899 4.88,-5.32 9.14,-11.21 12.81,-17.66 h 2.97 c -0.55,8.129 -1.06,15.782 -1.57,22.969 -0.31,6.133 -0.62,12.231 -0.93,18.281 -0.32,6.129 -0.47,10.66 -0.47,13.59 v 41.102 c 0,7.258 -1.1,13.16 -3.28,17.648 -2.19,4.461 -5.16,7.891 -8.91,10.32 -3.75,2.5 -8.12,4.098 -13.12,4.84 -5,0.7 -10.28,1.09 -15.79,1.09 h -4.06 v 20.942 h 92.03 z m -115,-27.973 c 13.01,0 23.83,2.109 32.5,6.41 8.75,4.371 15.78,10.93 21.1,19.68 5.31,8.832 9.06,19.922 11.25,33.281 2.18,13.32 3.28,29.07 3.28,47.192 0,17.378 -1.1,32.738 -3.28,46.097 -2.19,13.321 -5.94,24.531 -11.25,33.59 -5.32,9.063 -12.43,15.941 -21.25,20.621 -8.75,4.692 -19.69,7.039 -32.82,7.039 -10.93,0 -20.31,-2.347 -28.12,-7.039 -7.81,-4.68 -14.22,-11.64 -19.22,-20.781 -4.92,-9.059 -8.52,-20.309 -10.78,-33.75 -2.31,-13.43 -3.44,-28.859 -3.44,-46.25 0,-35.539 4.77,-62.109 14.38,-79.68 9.57,-17.621 25.47,-26.41 47.65,-26.41 z" /><path
         id="path62"
         style="fill:#0078ae;fill-opacity:1;fill-rule:nonzero;stroke:none"
         d="m 60.1992,70.1992 c -9.1797,0 -17.2695,0.9297 -24.2187,2.8125 -7,1.9492 -12.8203,4.6875 -17.5,8.1172 -4.6914,3.4414 -8.25,7.582 -10.62894,12.5 -2.30078,4.8906 -3.4414,10.2421 -3.4414,16.1011 0,5.622 1.71875,10.149 5.16015,13.59 3.51949,3.442 8.51949,5.16 14.99999,5.16 0.3086,-5.859 1.168,-11.492 2.6602,-16.878 1.5586,-5.313 3.8203,-10.082 6.8711,-14.2231 3.0078,-4.0586 6.7968,-7.3398 11.4101,-9.8398 4.6875,-2.418 10.3086,-3.5899 16.8672,-3.5899 12.582,0 22.3906,3 29.3828,9.0625 7.0664,6.0078 10.6173,14.7583 10.6173,26.2503 0,5.078 -0.738,9.57 -2.18,13.437 -1.4881,3.942 -3.9099,7.571 -7.3474,10.93 -3.3633,3.32 -7.7735,6.492 -13.2813,9.531 -5.4297,3.129 -12.2695,6.328 -20.4687,9.692 -8.6719,3.519 -16.25,7.347 -22.8125,11.41 -6.4883,4.058 -11.8399,8.508 -16.0899,13.437 -4.3008,5 -7.4687,10.539 -9.539,16.711 -2.10942,6.141 -3.12114,13.012 -3.12114,20.629 0,8.012 1.48047,15.16 4.53124,21.41 3.1289,6.321 7.3789,11.641 12.8086,15.93 5.5117,4.383 11.9609,7.703 19.3828,10 7.5,2.269 15.6602,3.441 24.5274,3.441 8.3203,0 15.6992,-0.898 22.1914,-2.66 6.5586,-1.789 12.0315,-4.14 16.3985,-7.031 4.461,-2.93 7.851,-6.25 10.16,-10 2.383,-3.75 3.59,-7.731 3.59,-11.867 0,-5.942 -1.988,-10.473 -5.93,-13.602 -3.988,-3.039 -9.34,-4.531 -16.0974,-4.531 0,4.383 -0.5508,8.641 -1.5625,12.82 -1.0586,4.25 -2.8086,8.039 -5.3086,11.403 -2.4297,3.32 -5.6289,6.019 -9.6914,8.128 -3.9883,2.18 -8.9102,3.282 -14.8399,3.282 -5.4297,0 -10.2773,-0.782 -14.539,-2.352 -4.1797,-1.48 -7.7305,-3.59 -10.6211,-6.398 -2.9297,-2.813 -5.1602,-6.211 -6.7188,-10.16 -1.5586,-3.872 -2.3398,-8.204 -2.3398,-12.973 0,-5.617 0.6992,-10.578 2.1797,-14.84 1.4492,-4.18 3.9101,-7.969 7.3515,-11.41 3.4375,-3.43 7.8867,-6.68 13.4375,-9.68 5.6211,-3.051 12.4219,-6.219 20.461,-9.539 8.2109,-3.359 15.5507,-6.871 22.039,-10.621 6.4418,-3.75 11.8708,-7.93 16.2498,-12.5 4.449,-4.609 7.891,-9.769 10.313,-15.469 2.379,-5.738 3.59,-12.191 3.59,-19.371 0,-8.867 -1.641,-16.801 -4.84,-23.75 -3.242,-6.9998 -7.891,-12.8982 -13.91,-17.6599 -6.051,-4.8086 -13.3637,-8.5196 -21.8715,-11.0899 -8.4414,-2.5 -17.8907,-3.75 -28.2813,-3.75 z M 217.73,85.0391 c 3.442,0 6.571,0.1601 9.379,0.4726 2.813,0.3867 5.661,0.8594 8.59,1.3985 V 74.7305 c -1.25,-0.6289 -2.808,-1.211 -4.679,-1.7188 -1.879,-0.5117 -3.989,-0.9804 -6.25,-1.4101 -2.192,-0.3907 -4.54,-0.7032 -7.04,-0.9414 -2.421,-0.3086 -4.679,-0.461 -6.871,-0.461 -7.187,0 -13.359,0.7813 -18.437,2.3399 -5.121,1.4414 -9.332,3.832 -12.652,7.1914 -3.25,3.4297 -5.629,7.8906 -7.192,13.4297 -1.558,5.6289 -2.348,12.4298 -2.348,20.4688 v 93.441 h -21.402 v 11.25 c 3.442,0 7.113,0.66 11.094,2.032 4.058,1.328 7.656,3.628 10.777,6.878 3.211,3.43 5.781,7.54 7.66,12.34 1.95,4.77 3.672,10.782 5.161,17.969 h 12.96 V 223.16 h 36.571 V 207.07 H 196.48 v -94.218 c 0,-9.614 1.918,-16.6411 5.79,-21.0903 3.82,-4.4922 8.98,-6.7226 15.46,-6.7226 z" /><path
         id="path64"
         style="fill:#0078ae;fill-opacity:1;fill-rule:nonzero;stroke:none"
         d="m 332.109,73.0117 h -80.781 v 11.7188 h 0.781 c 3.121,0 6.09,0.1914 8.911,0.6211 2.808,0.5078 5.191,1.4492 7.179,2.8086 2.071,1.4492 3.75,3.4804 5,6.1015 1.25,2.6875 1.879,6.2503 1.879,10.6173 v 87.351 c 0,4.059 -0.629,7.34 -1.879,9.84 -1.25,2.578 -2.929,4.571 -5,5.942 -2.109,1.328 -4.527,2.218 -7.34,2.648 -2.738,0.512 -5.629,0.789 -8.75,0.789 h -0.781 v 11.711 h 42.973 l 5.308,-27.808 h 1.411 c 1.871,4.136 3.75,8.046 5.621,11.718 1.879,3.75 4.218,7.032 7.031,9.84 2.808,2.82 6.25,5 10.308,6.57 4.071,1.559 9.219,2.34 15.469,2.34 10.199,0 17.742,-1.8 22.66,-5.308 5,-3.563 7.5,-8.563 7.5,-15 0,-2.93 -0.468,-5.633 -1.41,-8.133 -0.929,-2.418 -2.461,-4.488 -4.527,-6.25 -2.113,-1.789 -4.801,-3.199 -8.121,-4.219 -3.25,-0.93 -7.27,-1.398 -12.031,-1.398 0,7.808 -1.098,13.359 -3.29,16.718 -2.179,3.43 -6.011,5.149 -11.402,5.149 -3.558,0 -6.68,-1.008 -9.379,-2.969 -2.73,-1.871 -5.109,-4.488 -7.179,-7.808 -2,-3.243 -3.719,-6.954 -5.161,-11.09 -1.488,-4.18 -2.621,-8.524 -3.437,-12.973 -0.863,-4.379 -1.481,-8.75 -1.871,-13.129 -0.321,-4.371 -0.473,-8.359 -0.473,-11.871 V 103.48 c 0,-4.0698 0.551,-7.3511 1.723,-9.8511 1.25,-2.5 2.89,-4.4492 5,-5.7773 2.179,-1.25 4.609,-2.1133 7.34,-2.5 2.808,-0.4297 5.781,-0.6211 8.91,-0.6211 h 7.808 z" /><path
         id="path66"
         style="fill:#0078ae;fill-opacity:1;fill-rule:nonzero;stroke:none"
         d="m 519.84,148.32 c 0,-26.371 -5.578,-46.019 -16.719,-58.9098 -11.172,-12.8086 -27.461,-19.211 -48.902,-19.211 -10.239,0 -19.34,1.6406 -27.34,4.8399 -8.051,3.1992 -14.848,8.0507 -20.469,14.5312 -5.551,6.4492 -9.808,14.5707 -12.82,24.3787 -2.93,9.762 -4.371,21.25 -4.371,34.371 0,26.129 5.511,45.551 16.562,58.282 11.129,12.808 27.539,19.218 49.219,19.218 10.078,0 19.141,-1.558 27.191,-4.691 8.008,-3.117 14.84,-7.93 20.469,-14.367 5.621,-6.371 9.879,-14.461 12.809,-24.223 2.89,-9.687 4.371,-21.09 4.371,-34.219 z m -103.59,0 c 0,-10.429 0.66,-19.609 2.031,-27.5 1.328,-7.929 3.52,-14.531 6.559,-19.84 3.129,-5.3198 7.109,-9.3784 12.039,-12.1909 4.883,-2.7383 10.82,-4.0586 17.812,-4.0586 6.95,0 12.848,1.3203 17.649,4.0586 4.89,2.8125 8.832,6.8711 11.879,12.1909 3.011,5.309 5.16,11.911 6.402,19.84 1.328,7.891 2.039,17.071 2.039,27.5 0,10.391 -0.711,19.532 -2.039,27.34 -1.359,7.82 -3.551,14.301 -6.562,19.539 -3.039,5.313 -6.989,9.25 -11.868,11.871 -4.812,2.7 -10.742,4.059 -17.812,4.059 -7,0 -12.93,-1.359 -17.82,-4.059 -4.797,-2.621 -8.707,-6.558 -11.719,-11.871 -3.039,-5.238 -5.231,-11.719 -6.559,-19.539 -1.371,-7.808 -2.031,-16.949 -2.031,-27.34 z" /><path
         id="path68"
         style="fill:#0078ae;fill-opacity:1;fill-rule:nonzero;stroke:none"
         d="M 618.75,84.7305 V 73.0117 h -75.309 v 11.7188 h 2.34 c 3.129,0 6.098,0.1914 8.91,0.6211 2.809,0.5078 5.188,1.4492 7.188,2.8086 2.07,1.4492 3.742,3.4804 5,6.1015 1.242,2.6875 1.871,6.2503 1.871,10.6173 v 87.351 c 0,4.059 -0.629,7.34 -1.871,9.84 -1.258,2.578 -2.93,4.571 -5,5.942 -2.109,1.328 -4.539,2.218 -7.348,2.648 -2.73,0.512 -5.621,0.789 -8.75,0.789 H 545 v 11.711 h 45.16 l 3.75,-22.648 h 1.399 c 2.89,5.078 5.98,9.289 9.222,12.648 3.199,3.32 6.598,5.942 10.16,7.82 3.629,1.872 7.5,3.122 11.559,3.75 4.059,0.7 8.32,1.09 12.809,1.09 7.269,0 13.832,-1.09 19.691,-3.281 5.82,-2.109 10.699,-5.391 14.691,-9.84 4.059,-4.379 7.18,-10.078 9.368,-17.039 2.191,-6.871 3.281,-15.109 3.281,-24.68 v -66.101 c 0,-4.367 0.512,-7.9298 1.57,-10.6173 1.012,-2.6211 2.5,-4.6523 4.371,-6.1015 1.879,-1.3594 4.098,-2.3008 6.719,-2.8086 2.699,-0.4297 5.629,-0.6211 8.75,-0.6211 h 0.941 V 73.0117 h -48.75 V 169.73 c 0,6.008 -0.589,11.399 -1.722,16.09 -1.059,4.77 -2.809,8.789 -5.309,12.032 -2.43,3.32 -5.59,5.82 -9.539,7.5 -3.859,1.757 -8.59,2.66 -14.211,2.66 -6.371,0 -11.719,-1.25 -16.101,-3.75 -4.368,-2.5 -7.887,-5.864 -10.469,-10 -2.61,-4.18 -4.488,-9.032 -5.621,-14.532 C 595.551,174.301 595,168.551 595,162.539 V 103.48 c 0,-4.0698 0.551,-7.3511 1.719,-9.8511 1.25,-2.5 2.89,-4.4492 5,-5.7773 2.191,-1.25 4.609,-2.1133 7.34,-2.5 2.82,-0.4297 5.781,-0.6211 8.91,-0.6211 z" /><path
         id="path70"
         style="fill:#0078ae;fill-opacity:1;fill-rule:nonzero;stroke:none"
         d="m 863.281,217.23 c 0,-2 -0.312,-3.871 -0.941,-5.628 -0.539,-1.801 -1.399,-3.364 -2.649,-4.692 -1.171,-1.359 -2.66,-2.422 -4.531,-3.121 -1.879,-0.738 -4.07,-1.09 -6.57,-1.09 0,1.012 -0.149,2.071 -0.469,3.121 -0.23,1.129 -0.699,2.192 -1.402,3.129 -0.629,0.93 -1.559,1.711 -2.809,2.34 -1.18,0.621 -2.738,0.941 -4.691,0.941 -2.309,0 -4.449,-0.32 -6.41,-0.941 -1.868,-0.551 -3.75,-1.367 -5.618,-2.5 3.2,-3.988 5.821,-8.59 7.809,-13.91 2.07,-5.309 3.121,-11.988 3.121,-20 0,-6.988 -1.051,-13.399 -3.121,-19.219 -2.109,-5.859 -5.23,-10.93 -9.379,-15.308 -4.062,-4.301 -9.293,-7.622 -15.621,-10 -6.371,-2.422 -13.75,-3.59 -22.191,-3.59 -1.168,0 -2.418,0 -3.75,0 -1.36,0.078 -2.731,0.148 -4.059,0.148 -1.371,0.078 -2.66,0.199 -3.91,0.32 -1.168,0.071 -2.11,0.192 -2.809,0.309 -1.871,-0.937 -3.672,-1.988 -5.312,-3.129 -1.559,-1.051 -2.969,-2.262 -4.219,-3.59 -1.25,-1.371 -2.27,-2.929 -2.969,-4.691 -0.742,-1.68 -1.09,-3.547 -1.09,-5.617 0,-2.313 0.387,-4.141 1.25,-5.473 0.938,-1.367 2.18,-2.457 3.75,-3.277 1.559,-0.742 3.36,-1.25 5.469,-1.563 2.18,-0.2381 4.449,-0.3201 6.871,-0.3201 h 31.719 c 8.441,0 15.551,-1.0469 21.41,-3.1172 5.82,-2.1133 10.539,-5 14.219,-8.75 3.742,-3.6719 6.441,-8.0898 8.121,-13.2812 1.641,-5.0821 2.5,-10.6289 2.5,-16.5703 0,-8 -1.52,-15.2305 -4.531,-21.711 -2.93,-6.5703 -7.457,-12.0703 -13.59,-16.5703 -6.059,-4.4492 -13.758,-7.9687 -23.129,-10.46874 -9.301,-2.5 -20.27,-3.75 -32.969,-3.75 -19.492,0 -34.062,3.67968 -43.75,10.94144 -9.691,7.1875 -14.531,17.1875 -14.531,30 0,5.5468 0.941,10.3086 2.809,14.3789 1.961,4.0586 4.57,7.5703 7.812,10.4687 3.207,2.8906 6.918,5.2305 11.098,7.0313 4.261,1.8711 8.672,3.1992 13.281,4.0586 -1.879,0.8203 -3.75,1.9101 -5.621,3.2812 -1.801,1.3281 -3.399,2.9688 -4.848,4.8399 -1.48,1.9609 -2.652,4.1406 -3.59,6.5703 -0.941,2.5 -1.41,5.2305 -1.41,8.2815 0,5.617 1.449,10.468 4.379,14.527 2.891,4.063 7.57,7.973 14.059,11.723 -4.059,1.636 -7.66,3.898 -10.778,6.718 -3.132,2.891 -5.781,6.168 -7.972,9.84 -2.11,3.75 -3.707,7.809 -4.84,12.192 -1.18,4.367 -1.719,8.898 -1.719,13.59 0,8.128 1.09,15.347 3.281,21.718 2.18,6.328 5.469,11.762 9.84,16.25 4.379,4.45 9.84,7.852 16.41,10.16 6.559,2.379 14.258,3.59 23.118,3.59 3.32,0 6.601,-0.269 9.851,-0.781 3.32,-0.43 6.32,-1.09 9.059,-2.027 2.812,-0.864 5.312,-1.84 7.5,-2.973 2.261,-1.059 4.101,-2.148 5.472,-3.277 1.329,1.437 2.887,3.039 4.688,4.84 1.871,1.757 3.941,3.359 6.242,4.847 2.27,1.563 4.77,2.813 7.5,3.75 2.699,1.012 5.629,1.563 8.758,1.563 2.812,0 5.191,-0.43 7.18,-1.25 2.07,-0.742 3.793,-1.801 5.16,-3.133 1.332,-1.25 2.34,-2.77 2.972,-4.527 0.7,-1.801 1.09,-3.672 1.09,-5.622 z M 745.16,48.3203 c 0,-4.0586 0.5,-7.8515 1.559,-11.4101 1.133,-3.5118 3.051,-6.5586 5.781,-9.0586 2.809,-2.5821 6.48,-4.6133 11.09,-6.0899 4.691,-1.4531 10.551,-2.1914 17.66,-2.1914 10.078,0 18.359,0.8594 24.84,2.5 6.57,1.6797 11.719,4.0195 15.469,7.0313 3.832,3.0468 6.562,6.6367 8.132,10.7773 1.559,4.1797 2.34,8.7109 2.34,13.6016 0,4.289 -0.621,7.8086 -1.871,10.6211 -1.25,2.7382 -3.09,4.9179 -5.469,6.5586 -2.421,1.5703 -5.39,2.6601 -8.91,3.289 -3.551,0.6211 -7.66,0.9297 -12.34,0.9297 h -27.5 c -3.871,0 -7.66,-0.3906 -11.41,-1.0898 -3.672,-0.6289 -6.953,-1.8789 -9.84,-3.75 -2.812,-1.9493 -5.121,-4.6875 -6.882,-8.1289 -1.789,-3.4297 -2.649,-7.961 -2.649,-13.5899 z m 16.399,126.5587 c 0,-11.988 1.961,-20.738 5.941,-26.25 3.949,-5.539 10.391,-8.277 19.379,-8.277 4.57,0 8.43,0.668 11.562,2.027 3.118,1.332 5.661,3.441 7.649,6.25 2.07,2.82 3.519,6.41 4.379,10.781 0.941,4.461 1.41,9.77 1.41,15.942 0,12.5 -1.957,21.757 -5.789,27.808 -3.86,6.02 -10.309,9.07 -19.371,9.07 -9.059,0 -15.547,-3.089 -19.379,-9.218 -3.86,-6.172 -5.781,-15.551 -5.781,-28.133 z" /><path
         id="path72"
         style="fill:#0078ae;fill-opacity:1;fill-rule:nonzero;stroke:none"
         d="m 944.059,210.82 c -10.43,0 -18.438,-4.218 -24.059,-12.66 -5.621,-8.43 -8.91,-20.781 -9.84,-37.031 h 64.371 c 0,7.391 -0.582,14.141 -1.722,20.32 -1.047,6.133 -2.77,11.403 -5.149,15.781 -2.43,4.372 -5.551,7.692 -9.379,10 -3.871,2.379 -8.59,3.59 -14.222,3.59 z M 947.5,70.1992 c -10.23,0 -19.34,1.711 -27.34,5.1524 -8.051,3.4375 -14.851,8.4375 -20.469,15 -5.55,6.5586 -9.812,14.5704 -12.812,24.0584 -2.93,9.57 -4.379,20.391 -4.379,32.5 0,26.25 5.352,45.942 16.09,59.07 10.711,13.2 26.019,19.84 45.941,19.84 9.059,0 17.188,-1.41 24.379,-4.218 7.18,-2.813 13.281,-7.032 18.281,-12.653 5,-5.629 8.829,-12.617 11.559,-20.937 2.7,-8.364 4.06,-18.051 4.06,-29.063 v -12.82 h -93.279 c 0.199,-10.231 1.25,-19.02 3.129,-26.399 1.871,-7.308 4.531,-13.359 7.961,-18.128 3.52,-4.6918 7.859,-8.2036 12.969,-10.4731 5.082,-2.1797 10.98,-3.2773 17.66,-3.2773 4.77,0 9.262,0.5078 13.441,1.5586 4.137,1.1406 7.887,2.5781 11.25,4.3789 3.438,1.8711 6.438,3.9414 9.059,6.2499 2.578,2.383 4.691,4.883 6.25,7.5 1.328,-0.629 2.578,-1.84 3.75,-3.59 1.129,-1.679 1.719,-3.719 1.719,-6.0974 0,-2.8125 -1.059,-5.8633 -3.129,-9.0625 -1.988,-3.2383 -5.07,-6.2071 -9.211,-8.9102 -4.07,-2.7305 -9.18,-5 -15.32,-6.8672 -6.168,-1.8828 -13.36,-2.8125 -21.559,-2.8125 z" /><path
         id="path74"
         style="fill:#0078ae;fill-opacity:1;fill-rule:nonzero;stroke:none"
         d="m 1107.03,73.0117 h -80.78 v 11.7188 h 0.78 c 3.13,0 6.09,0.1914 8.91,0.6211 2.81,0.5078 5.19,1.4492 7.18,2.8086 2.08,1.4492 3.76,3.4804 5,6.1015 1.26,2.6875 1.88,6.2503 1.88,10.6173 v 87.351 c 0,4.059 -0.62,7.34 -1.88,9.84 -1.24,2.578 -2.92,4.571 -5,5.942 -2.1,1.328 -4.53,2.218 -7.34,2.648 -2.73,0.512 -5.62,0.789 -8.75,0.789 h -0.78 v 11.711 h 42.97 l 5.31,-27.808 h 1.41 c 1.87,4.136 3.75,8.046 5.62,11.718 1.88,3.75 4.22,7.032 7.03,9.84 2.82,2.82 6.25,5 10.32,6.57 4.06,1.559 9.21,2.34 15.47,2.34 10.19,0 17.73,-1.8 22.65,-5.308 5,-3.563 7.5,-8.563 7.5,-15 0,-2.93 -0.47,-5.633 -1.41,-8.133 -0.93,-2.418 -2.46,-4.488 -4.53,-6.25 -2.11,-1.789 -4.8,-3.199 -8.12,-4.219 -3.24,-0.93 -7.27,-1.398 -12.03,-1.398 0,7.808 -1.1,13.359 -3.28,16.718 -2.19,3.43 -6.02,5.149 -11.41,5.149 -3.55,0 -6.68,-1.008 -9.37,-2.969 -2.74,-1.871 -5.12,-4.488 -7.19,-7.808 -1.99,-3.243 -3.71,-6.954 -5.16,-11.09 -1.48,-4.18 -2.62,-8.524 -3.44,-12.973 -0.86,-4.379 -1.48,-8.75 -1.87,-13.129 -0.31,-4.371 -0.47,-8.359 -0.47,-11.871 V 103.48 c 0,-4.0698 0.55,-7.3511 1.72,-9.8511 1.25,-2.5 2.89,-4.4492 5,-5.7773 2.19,-1.25 4.61,-2.1133 7.34,-2.5 2.81,-0.4297 5.78,-0.6211 8.91,-0.6211 h 7.81 z" /><path
         id="path76"
         style="fill:#0078ae;fill-opacity:1;fill-rule:nonzero;stroke:none"
         d="m 1321.09,104.879 c 0,-4.367 0.63,-7.9298 1.88,-10.6173 1.25,-2.6211 2.85,-4.6523 4.84,-6.1015 2.07,-1.3594 4.53,-2.3008 7.35,-2.8086 2.81,-0.4297 5.78,-0.6211 8.9,-0.6211 h 6.41 V 73.0117 h -87.03 v 11.7188 h 6.4 c 3.13,0 6.02,0.1914 8.75,0.6211 2.82,0.3867 5.24,1.25 7.35,2.5 2.07,1.3281 3.75,3.2773 5,5.7773 1.25,2.5 1.87,5.7813 1.87,9.8511 v 155.469 h -26.87 c -4.06,0 -7.5,-0.629 -10.32,-1.879 -2.73,-1.25 -5,-2.929 -6.87,-5 -1.8,-2.109 -3.09,-4.531 -3.91,-7.34 -0.86,-2.742 -1.48,-5.628 -1.87,-8.75 l -1.41,-12.031 h -14.53 l 1.41,48.903 h 157.65 l 1.25,-48.903 h -14.37 l -1.41,12.031 c -0.43,3.122 -1.09,6.008 -2.03,8.75 -0.86,2.809 -2.15,5.231 -3.91,7.34 -1.67,2.071 -3.98,3.75 -6.87,5 -2.81,1.25 -6.33,1.879 -10.47,1.879 h -27.19 z" /><path
         id="path78"
         style="fill:#0078ae;fill-opacity:1;fill-rule:nonzero;stroke:none"
         d="m 1531.02,148.32 c 0,-26.371 -5.59,-46.019 -16.72,-58.9098 -11.18,-12.8086 -27.46,-19.211 -48.91,-19.211 -10.23,0 -19.34,1.6406 -27.34,4.8399 -8.05,3.1992 -14.85,8.0507 -20.47,14.5312 -5.55,6.4492 -9.81,14.5707 -12.81,24.3787 -2.93,9.762 -4.38,21.25 -4.38,34.371 0,26.129 5.51,45.551 16.56,58.282 11.14,12.808 27.54,19.218 49.22,19.218 10.08,0 19.14,-1.558 27.19,-4.691 8.01,-3.117 14.84,-7.93 20.47,-14.367 5.62,-6.371 9.88,-14.461 12.81,-24.223 2.89,-9.687 4.38,-21.09 4.38,-34.219 z m -103.6,0 c 0,-10.429 0.67,-19.609 2.03,-27.5 1.33,-7.929 3.52,-14.531 6.57,-19.84 3.12,-5.3198 7.1,-9.3784 12.03,-12.1909 4.88,-2.7383 10.82,-4.0586 17.81,-4.0586 6.95,0 12.85,1.3203 17.66,4.0586 4.88,2.8125 8.82,6.8711 11.87,12.1909 3.01,5.309 5.16,11.911 6.41,19.84 1.32,7.891 2.03,17.071 2.03,27.5 0,10.391 -0.71,19.532 -2.03,27.34 -1.37,7.82 -3.56,14.301 -6.57,19.539 -3.04,5.313 -6.99,9.25 -11.87,11.871 -4.81,2.7 -10.74,4.059 -17.81,4.059 -7,0 -12.93,-1.359 -17.82,-4.059 -4.8,-2.621 -8.71,-6.558 -11.71,-11.871 -3.05,-5.238 -5.24,-11.719 -6.57,-19.539 -1.36,-7.808 -2.03,-16.949 -2.03,-27.34 z" /><path
         id="path80"
         style="fill:#0078ae;fill-opacity:1;fill-rule:nonzero;stroke:none"
         d="m 1693.98,217.23 c 0,-2 -0.31,-3.871 -0.93,-5.628 -0.55,-1.801 -1.41,-3.364 -2.66,-4.692 -1.17,-1.359 -2.66,-2.422 -4.53,-3.121 -1.88,-0.738 -4.06,-1.09 -6.56,-1.09 0,1.012 -0.16,2.071 -0.47,3.121 -0.24,1.129 -0.71,2.192 -1.41,3.129 -0.62,0.93 -1.56,1.711 -2.81,2.34 -1.17,0.621 -2.73,0.941 -4.69,0.941 -2.3,0 -4.45,-0.32 -6.4,-0.941 -1.88,-0.551 -3.75,-1.367 -5.63,-2.5 3.2,-3.988 5.82,-8.59 7.81,-13.91 2.07,-5.309 3.13,-11.988 3.13,-20 0,-6.988 -1.06,-13.399 -3.13,-19.219 -2.11,-5.859 -5.23,-10.93 -9.37,-15.308 -4.06,-4.301 -9.3,-7.622 -15.63,-10 -6.36,-2.422 -13.75,-3.59 -22.18,-3.59 -1.18,0 -2.43,0 -3.75,0 -1.37,0.078 -2.74,0.148 -4.07,0.148 -1.36,0.078 -2.65,0.199 -3.9,0.32 -1.18,0.071 -2.11,0.192 -2.82,0.309 -1.87,-0.937 -3.67,-1.988 -5.31,-3.129 -1.56,-1.051 -2.97,-2.262 -4.22,-3.59 -1.25,-1.371 -2.26,-2.929 -2.97,-4.691 -0.74,-1.68 -1.09,-3.547 -1.09,-5.617 0,-2.313 0.39,-4.141 1.25,-5.473 0.94,-1.367 2.19,-2.457 3.75,-3.277 1.56,-0.742 3.36,-1.25 5.47,-1.563 2.19,-0.2381 4.45,-0.3201 6.87,-0.3201 h 31.72 c 8.44,0 15.55,-1.0469 21.41,-3.1172 5.82,-2.1133 10.55,-5 14.22,-8.75 3.75,-3.6719 6.44,-8.0898 8.12,-13.2812 1.64,-5.0821 2.5,-10.6289 2.5,-16.5703 0,-8 -1.52,-15.2305 -4.53,-21.711 -2.93,-6.5703 -7.46,-12.0703 -13.59,-16.5703 -6.06,-4.4492 -13.75,-7.9687 -23.13,-10.46874 -9.29,-2.5 -20.27,-3.75 -32.97,-3.75 -19.49,0 -34.06,3.67968 -43.75,10.94144 -9.68,7.1875 -14.53,17.1875 -14.53,30 0,5.5468 0.94,10.3086 2.82,14.3789 1.95,4.0586 4.57,7.5703 7.81,10.4687 3.2,2.8906 6.91,5.2305 11.09,7.0313 4.26,1.8711 8.67,3.1992 13.28,4.0586 -1.87,0.8203 -3.75,1.9101 -5.62,3.2812 -1.8,1.3281 -3.4,2.9688 -4.85,4.8399 -1.48,1.9609 -2.65,4.1406 -3.59,6.5703 -0.94,2.5 -1.41,5.2305 -1.41,8.2815 0,5.617 1.45,10.468 4.38,14.527 2.89,4.063 7.58,7.973 14.06,11.723 -4.06,1.636 -7.65,3.898 -10.78,6.718 -3.12,2.891 -5.78,6.168 -7.97,9.84 -2.11,3.75 -3.71,7.809 -4.84,12.192 -1.17,4.367 -1.72,8.898 -1.72,13.59 0,8.128 1.09,15.347 3.28,21.718 2.19,6.328 5.47,11.762 9.84,16.25 4.38,4.45 9.85,7.852 16.41,10.16 6.56,2.379 14.26,3.59 23.13,3.59 3.32,0 6.6,-0.269 9.84,-0.781 3.32,-0.43 6.33,-1.09 9.06,-2.027 2.81,-0.864 5.31,-1.84 7.5,-2.973 2.27,-1.059 4.1,-2.148 5.47,-3.277 1.33,1.437 2.89,3.039 4.69,4.84 1.87,1.757 3.94,3.359 6.25,4.847 2.26,1.563 4.76,2.813 7.5,3.75 2.69,1.012 5.62,1.563 8.75,1.563 2.81,0 5.19,-0.43 7.19,-1.25 2.07,-0.742 3.78,-1.801 5.15,-3.133 1.33,-1.25 2.35,-2.77 2.97,-4.527 0.7,-1.801 1.09,-3.672 1.09,-5.622 z M 1575.86,48.3203 c 0,-4.0586 0.51,-7.8515 1.56,-11.4101 1.13,-3.5118 3.05,-6.5586 5.78,-9.0586 2.82,-2.5821 6.49,-4.6133 11.1,-6.0899 4.68,-1.4531 10.54,-2.1914 17.65,-2.1914 10.08,0 18.36,0.8594 24.85,2.5 6.56,1.6797 11.72,4.0195 15.47,7.0313 3.82,3.0468 6.56,6.6367 8.12,10.7773 1.56,4.1797 2.34,8.7109 2.34,13.6016 0,4.289 -0.62,7.8086 -1.87,10.6211 -1.25,2.7382 -3.09,4.9179 -5.47,6.5586 -2.42,1.5703 -5.39,2.6601 -8.91,3.289 -3.55,0.6211 -7.65,0.9297 -12.34,0.9297 h -27.5 c -3.87,0 -7.66,-0.3906 -11.41,-1.0898 -3.67,-0.6289 -6.95,-1.8789 -9.84,-3.75 -2.81,-1.9493 -5.12,-4.6875 -6.87,-8.1289 -1.8,-3.4297 -2.66,-7.961 -2.66,-13.5899 z m 16.41,126.5587 c 0,-11.988 1.95,-20.738 5.93,-26.25 3.95,-5.539 10.39,-8.277 19.38,-8.277 4.57,0 8.44,0.668 11.56,2.027 3.13,1.332 5.66,3.441 7.66,6.25 2.07,2.82 3.51,6.41 4.37,10.781 0.94,4.461 1.41,9.77 1.41,15.942 0,12.5 -1.96,21.757 -5.78,27.808 -3.87,6.02 -10.32,9.07 -19.38,9.07 -9.06,0 -15.54,-3.089 -19.37,-9.218 -3.87,-6.172 -5.78,-15.551 -5.78,-28.133 z" /><path
         id="path82"
         style="fill:#0078ae;fill-opacity:1;fill-rule:nonzero;stroke:none"
         d="m 1774.77,210.82 c -10.43,0 -18.44,-4.218 -24.07,-12.66 -5.62,-8.43 -8.9,-20.781 -9.84,-37.031 h 64.37 c 0,7.391 -0.58,14.141 -1.71,20.32 -1.06,6.133 -2.78,11.403 -5.16,15.781 -2.42,4.372 -5.55,7.692 -9.38,10 -3.86,2.379 -8.59,3.59 -14.21,3.59 z m 3.43,-140.6208 c -10.23,0 -19.33,1.711 -27.34,5.1524 -8.05,3.4375 -14.84,8.4375 -20.47,15 -5.55,6.5586 -9.8,14.5704 -12.81,24.0584 -2.93,9.57 -4.38,20.391 -4.38,32.5 0,26.25 5.35,45.942 16.1,59.07 10.7,13.2 26.01,19.84 45.93,19.84 9.07,0 17.19,-1.41 24.38,-4.218 7.19,-2.813 13.28,-7.032 18.28,-12.653 5,-5.629 8.83,-12.617 11.56,-20.937 2.7,-8.364 4.07,-18.051 4.07,-29.063 v -12.82 h -93.29 c 0.2,-10.231 1.25,-19.02 3.13,-26.399 1.87,-7.308 4.53,-13.359 7.97,-18.128 3.51,-4.6918 7.85,-8.2036 12.97,-10.4731 5.08,-2.1797 10.97,-3.2773 17.65,-3.2773 4.77,0 9.26,0.5078 13.44,1.5586 4.14,1.1406 7.89,2.5781 11.25,4.3789 3.44,1.8711 6.45,3.9414 9.06,6.2499 2.58,2.383 4.69,4.883 6.25,7.5 1.33,-0.629 2.58,-1.84 3.75,-3.59 1.14,-1.679 1.72,-3.719 1.72,-6.0974 0,-2.8125 -1.05,-5.8633 -3.12,-9.0625 -2,-3.2383 -5.08,-6.2071 -9.22,-8.9102 -4.06,-2.7305 -9.18,-5 -15.31,-6.8672 -6.18,-1.8828 -13.36,-2.8125 -21.57,-2.8125 z" /><path
         id="path84"
         style="fill:#0078ae;fill-opacity:1;fill-rule:nonzero;stroke:none"
         d="m 1921.8,85.0391 c 3.43,0 6.56,0.1601 9.37,0.4726 2.81,0.3867 5.67,0.8594 8.6,1.3985 V 74.7305 c -1.25,-0.6289 -2.82,-1.211 -4.69,-1.7188 -1.88,-0.5117 -3.99,-0.9804 -6.25,-1.4101 -2.19,-0.3907 -4.53,-0.7032 -7.03,-0.9414 -2.42,-0.3086 -4.69,-0.461 -6.88,-0.461 -7.19,0 -13.36,0.7813 -18.44,2.3399 -5.11,1.4414 -9.33,3.832 -12.65,7.1914 -3.24,3.4297 -5.63,7.8906 -7.19,13.4297 -1.56,5.6289 -2.34,12.4298 -2.34,20.4688 v 93.441 h -21.41 v 11.25 c 3.44,0 7.11,0.66 11.09,2.032 4.07,1.328 7.66,3.628 10.79,6.878 3.2,3.43 5.78,7.54 7.65,12.34 1.96,4.77 3.67,10.782 5.16,17.969 h 12.97 V 223.16 h 36.56 v -16.09 h -36.56 v -94.218 c 0,-9.614 1.91,-16.6411 5.78,-21.0903 3.83,-4.4922 8.98,-6.7226 15.47,-6.7226 z" /><path
         id="path86"
         style="fill:#0078ae;fill-opacity:1;fill-rule:nonzero;stroke:none"
         d="M 2026.48,84.7305 V 73.0117 h -75.46 v 11.7188 h 2.18 c 3.21,0 6.18,0.1914 8.91,0.6211 2.81,0.5078 5.23,1.4492 7.34,2.8086 2.07,1.4492 3.67,3.4804 4.85,6.1015 1.25,2.6875 1.87,6.2503 1.87,10.6173 v 150.16 c 0,4.063 -0.62,7.34 -1.87,9.84 -1.18,2.5 -2.78,4.422 -4.85,5.781 -2.11,1.328 -4.53,2.231 -7.34,2.66 -2.81,0.391 -5.78,0.629 -8.91,0.629 h -2.18 v 11.871 h 51.56 v -61.558 c 0,-2.621 -0.08,-5.313 -0.16,-8.133 0,-2.731 -0.12,-5.27 -0.31,-7.649 -0.23,-2.742 -0.43,-5.39 -0.63,-7.968 h 1.41 c 8.44,16.867 22.11,25.308 41.09,25.308 8.01,0 15.08,-1.09 21.25,-3.281 6.14,-2.109 11.29,-5.391 15.47,-9.84 4.14,-4.379 7.35,-10.078 9.53,-17.039 2.19,-6.871 3.29,-15.109 3.29,-24.68 v -66.101 c 0,-4.367 0.5,-7.9298 1.56,-10.6173 1.13,-2.6211 2.65,-4.6523 4.53,-6.1015 1.95,-1.3594 4.26,-2.3008 6.87,-2.8086 2.7,-0.4297 5.55,-0.6211 8.6,-0.6211 h 0.94 V 73.0117 h -48.75 V 169.73 c 0,6.008 -0.59,11.399 -1.72,16.09 -1.06,4.77 -2.78,8.789 -5.16,12.032 -2.42,3.32 -5.59,5.82 -9.53,7.5 -3.87,1.757 -8.67,2.66 -14.38,2.66 -5.86,0 -10.89,-1.102 -15.15,-3.282 -4.18,-2.109 -7.66,-5.16 -10.47,-9.218 -2.74,-3.992 -4.81,-8.75 -6.25,-14.383 -1.37,-5.539 -2.03,-11.719 -2.03,-18.59 V 103.48 c 0,-4.0698 0.62,-7.3511 1.87,-9.8511 1.25,-2.5 2.89,-4.4492 5,-5.7773 2.07,-1.25 4.53,-2.1133 7.35,-2.5 2.81,-0.4297 5.7,-0.6211 8.75,-0.6211 z" /><path
         id="path88"
         style="fill:#0078ae;fill-opacity:1;fill-rule:nonzero;stroke:none"
         d="m 2200.78,210.82 c -10.43,0 -18.44,-4.218 -24.06,-12.66 -5.63,-8.43 -8.91,-20.781 -9.84,-37.031 h 64.37 c 0,7.391 -0.59,14.141 -1.72,20.32 -1.05,6.133 -2.77,11.403 -5.15,15.781 -2.43,4.372 -5.55,7.692 -9.38,10 -3.87,2.379 -8.59,3.59 -14.22,3.59 z m 3.44,-140.6208 c -10.24,0 -19.34,1.711 -27.34,5.1524 -8.05,3.4375 -14.85,8.4375 -20.47,15 -5.55,6.5586 -9.81,14.5704 -12.82,24.0584 -2.93,9.57 -4.37,20.391 -4.37,32.5 0,26.25 5.35,45.942 16.09,59.07 10.71,13.2 26.02,19.84 45.94,19.84 9.06,0 17.19,-1.41 24.37,-4.218 7.19,-2.813 13.29,-7.032 18.29,-12.653 5,-5.629 8.82,-12.617 11.56,-20.937 2.69,-8.364 4.06,-18.051 4.06,-29.063 v -12.82 h -93.28 c 0.2,-10.231 1.25,-19.02 3.13,-26.399 1.87,-7.308 4.53,-13.359 7.96,-18.128 3.52,-4.6918 7.86,-8.2036 12.97,-10.4731 5.08,-2.1797 10.98,-3.2773 17.66,-3.2773 4.76,0 9.26,0.5078 13.44,1.5586 4.14,1.1406 7.89,2.5781 11.25,4.3789 3.43,1.8711 6.44,3.9414 9.06,6.2499 2.58,2.383 4.69,4.883 6.25,7.5 1.33,-0.629 2.58,-1.84 3.75,-3.59 1.13,-1.679 1.72,-3.719 1.72,-6.0974 0,-2.8125 -1.06,-5.8633 -3.13,-9.0625 -1.99,-3.2383 -5.08,-6.2071 -9.22,-8.9102 -4.06,-2.7305 -9.18,-5 -15.31,-6.8672 -6.17,-1.8828 -13.36,-2.8125 -21.56,-2.8125 z" /><path
         id="path90"
         style="fill:#0078ae;fill-opacity:1;fill-rule:nonzero;stroke:none"
         d="m 2363.75,73.0117 h -80.78 v 11.7188 h 0.78 c 3.13,0 6.09,0.1914 8.91,0.6211 2.81,0.5078 5.19,1.4492 7.18,2.8086 2.07,1.4492 3.75,3.4804 5,6.1015 1.25,2.6875 1.88,6.2503 1.88,10.6173 v 87.351 c 0,4.059 -0.63,7.34 -1.88,9.84 -1.25,2.578 -2.93,4.571 -5,5.942 -2.11,1.328 -4.53,2.218 -7.34,2.648 -2.73,0.512 -5.62,0.789 -8.75,0.789 h -0.78 v 11.711 h 42.97 l 5.31,-27.808 h 1.41 c 1.87,4.136 3.75,8.046 5.62,11.718 1.88,3.75 4.22,7.032 7.03,9.84 2.81,2.82 6.25,5 10.31,6.57 4.07,1.559 9.22,2.34 15.47,2.34 10.2,0 17.74,-1.8 22.66,-5.308 5,-3.563 7.5,-8.563 7.5,-15 0,-2.93 -0.47,-5.633 -1.41,-8.133 -0.93,-2.418 -2.46,-4.488 -4.53,-6.25 -2.11,-1.789 -4.8,-3.199 -8.12,-4.219 -3.24,-0.93 -7.27,-1.398 -12.03,-1.398 0,7.808 -1.1,13.359 -3.28,16.718 -2.19,3.43 -6.02,5.149 -11.41,5.149 -3.56,0 -6.68,-1.008 -9.38,-2.969 -2.73,-1.871 -5.11,-4.488 -7.18,-7.808 -2,-3.243 -3.71,-6.954 -5.16,-11.09 -1.48,-4.18 -2.62,-8.524 -3.44,-12.973 -0.86,-4.379 -1.48,-8.75 -1.87,-13.129 -0.32,-4.371 -0.47,-8.359 -0.47,-11.871 V 103.48 c 0,-4.0698 0.55,-7.3511 1.72,-9.8511 1.25,-2.5 2.89,-4.4492 5,-5.7773 2.19,-1.25 4.61,-2.1133 7.34,-2.5 2.81,-0.4297 5.78,-0.6211 8.91,-0.6211 h 7.81 z" /><path
         id="path92"
         style="fill:#0078ae;fill-opacity:1;fill-rule:nonzero;stroke:none"
         d="m 2435.55,272.852 h 32.65 l -9.84,-143.442 h -12.97 z M 2434.3,90.0391 c 0,3.6328 0.39,6.6406 1.25,9.0625 0.93,2.5004 2.18,4.4494 3.75,5.9374 1.64,1.441 3.51,2.5 5.62,3.121 2.19,0.629 4.53,0.942 7.03,0.942 2.27,0 4.46,-0.313 6.57,-0.942 2.18,-0.621 4.06,-1.68 5.62,-3.121 1.64,-1.488 2.97,-3.437 3.91,-5.9374 0.93,-2.4219 1.4,-5.4297 1.4,-9.0625 0,-3.5586 -0.47,-6.5586 -1.4,-9.0586 -0.94,-2.4297 -2.27,-4.3399 -3.91,-5.7813 -1.56,-1.4883 -3.44,-2.5 -5.62,-3.1289 -2.11,-0.6211 -4.3,-0.9414 -6.57,-0.9414 -2.5,0 -4.84,0.3203 -7.03,0.9414 -2.11,0.6289 -3.98,1.6406 -5.62,3.1289 -1.57,1.4414 -2.82,3.3516 -3.75,5.7813 -0.86,2.5 -1.25,5.5 -1.25,9.0586 z" /></g></g></svg>